<?xml version="1.0" standalone="no"?>
<svg viewBox="0 0 200 200" xmlns="http://www.w3.org/2000/svg">
  <path fill="#8A3FFC" d="M35.8,-60.3C42,-51.6,39.7,-34.4,45.2,-21.1C50.6,-7.7,63.7,1.7,66.3,12.2C68.9,22.7,60.9,34.3,52.1,46C43.3,57.6,33.5,69.3,20.7,75.3C7.9,81.3,-8.1,81.5,-23.2,77.7C-38.4,73.9,-52.8,66,-58.6,53.8C-64.5,41.7,-61.8,25.1,-57.4,12.3C-53,-0.6,-47,-9.6,-41.4,-17.7C-35.8,-25.8,-30.8,-32.9,-24,-41.3C-17.1,-49.8,-8.6,-59.6,3.1,-64.4C14.8,-69.2,29.5,-69,35.8,-60.3Z" transform="translate(100 100)" />
</svg>
