<?xml version="1.0" standalone="no"?>
<svg viewBox="0 0 200 200" xmlns="http://www.w3.org/2000/svg">
  <path fill="#8A3FFC" d="M34.8,-51.3C48.6,-45.4,65.5,-41.5,75.7,-31.1C85.9,-20.6,89.5,-3.6,82.2,8.2C74.9,20.1,56.8,26.8,43.5,32.1C30.2,37.5,21.8,41.4,11.5,48.9C1.3,56.3,-10.8,67.1,-18.8,64.5C-26.8,62,-30.8,46,-35.4,34.3C-40,22.5,-45.2,14.9,-48,5.9C-50.7,-3,-51,-13.2,-47.1,-21.4C-43.2,-29.7,-35.2,-36,-26.6,-44.3C-18.1,-52.6,-9,-63,0.7,-64.2C10.5,-65.3,21.1,-57.3,34.8,-51.3Z" transform="translate(100 100)" />
</svg>
