<?xml version="1.0" standalone="no"?>
<svg viewBox="0 0 200 200" xmlns="http://www.w3.org/2000/svg">
  <path fill="#8A3FFC" d="M35,-57.6C45.5,-47.6,54.4,-38.3,55.2,-27.8C56,-17.3,48.7,-5.7,46.6,6.5C44.5,18.6,47.6,31.3,43.8,41C40.1,50.7,29.5,57.5,19.2,56.5C8.9,55.5,-1.1,46.7,-9.6,40.6C-18,34.5,-24.9,31,-35.8,26.5C-46.7,22,-61.7,16.5,-63.8,8.6C-65.9,0.6,-55.2,-9.9,-49.7,-23.1C-44.2,-36.2,-44,-52.2,-36.6,-63.6C-29.2,-75,-14.6,-81.9,-1.2,-80C12.2,-78.1,24.4,-67.6,35,-57.6Z" transform="translate(100 100)" />
</svg>
